<svg width="17" height="17" viewBox="0 0 17 17" fill="none" xmlns="http://www.w3.org/2000/svg">
<g clip-path="url(#clip0_1_1538)">
<path d="M8.2937 0.787598C8.7312 0.620931 9.17912 0.620931 9.63745 0.787598L15.6375 2.9126C16.0333 3.07926 16.3458 3.32926 16.575 3.6626C16.825 3.99593 16.95 4.38135 16.95 4.81885V12.3813C16.95 12.8188 16.825 13.2043 16.575 13.5376C16.3458 13.8709 16.0333 14.1209 15.6375 14.2876L9.63745 16.4126C9.17912 16.5793 8.72078 16.5793 8.26245 16.4126L2.26245 14.2876C1.86662 14.1418 1.55412 13.8918 1.32495 13.5376C1.07495 13.2043 0.949951 12.8188 0.949951 12.3813V4.81885C0.949951 4.38135 1.07495 3.99593 1.32495 3.6626C1.55412 3.32926 1.87703 3.07926 2.2937 2.9126L8.2937 0.787598ZM8.94995 2.6626L3.51245 4.6001L8.94995 6.5376L14.3875 4.6001L8.94995 2.6626ZM9.94995 14.1938L14.95 12.4126V6.5376L9.94995 8.31885V14.1938Z" fill="white"/>
</g>
<defs>
<clipPath id="clip0_1_1538">
<rect width="16" height="16.8" fill="white" transform="matrix(1 0 0 -1 0.949951 17)"/>
</clipPath>
</defs>
</svg>
