<svg width="15" height="17" viewBox="0 0 15 17" fill="none" xmlns="http://www.w3.org/2000/svg">
<path d="M7.82007 8.6001C7.0909 8.6001 6.42423 8.42301 5.82007 8.06885C5.2159 7.71468 4.72632 7.2251 4.35132 6.6001C3.99715 5.9751 3.82007 5.30843 3.82007 4.6001C3.82007 3.89176 3.99715 3.2251 4.35132 2.6001C4.72632 1.9751 5.2159 1.48551 5.82007 1.13135C6.42423 0.777181 7.0909 0.600098 7.82007 0.600098C8.54923 0.600098 9.2159 0.777181 9.82007 1.13135C10.4242 1.48551 10.9138 1.9751 11.2888 2.6001C11.643 3.2251 11.8201 3.89176 11.8201 4.6001C11.8201 5.30843 11.643 5.9751 11.2888 6.6001C10.9138 7.2251 10.4242 7.71468 9.82007 8.06885C9.2159 8.42301 8.54923 8.6001 7.82007 8.6001ZM7.35132 11.8188L6.78882 10.8501C6.68465 10.6834 6.67423 10.5168 6.75757 10.3501C6.86173 10.2043 7.00757 10.1209 7.19507 10.1001H7.82007H8.44507C8.63257 10.1209 8.7784 10.2043 8.88257 10.3501C8.9659 10.5168 8.95549 10.6834 8.85132 10.8501L8.28882 11.8188L9.32007 15.6938L10.4451 11.1001C10.5492 10.8293 10.7367 10.7147 11.0076 10.7563C12.1326 11.048 13.0388 11.6313 13.7263 12.5063C14.4347 13.4022 14.7992 14.4438 14.8201 15.6313C14.8201 15.9022 14.7263 16.1313 14.5388 16.3188C14.3513 16.5063 14.1222 16.6001 13.8513 16.6001H9.75757C9.67424 16.6001 9.61174 16.5897 9.57007 16.5688V16.6001H6.07007V16.5688C6.0284 16.5897 5.97632 16.6001 5.91382 16.6001H1.78882C1.51798 16.6001 1.28882 16.5063 1.10132 16.3188C0.913818 16.1313 0.820068 15.9022 0.820068 15.6313C0.840902 14.4438 1.20549 13.4022 1.91382 12.5063C2.60132 11.6313 3.50757 11.048 4.63257 10.7563C4.9034 10.7147 5.0909 10.8293 5.19507 11.1001L6.32007 15.6938L7.35132 11.8188Z" fill="white"/>
</svg>
