<svg width="21" height="17" viewBox="0 0 21 17" fill="none" xmlns="http://www.w3.org/2000/svg">
<g clip-path="url(#clip0_1_1553)">
<path d="M3.3999 4.6001C3.3999 3.87093 3.57699 3.20426 3.93115 2.6001C4.28532 1.99593 4.7749 1.50635 5.3999 1.13135C6.0249 0.777181 6.69157 0.600098 7.3999 0.600098C8.10824 0.600098 8.7749 0.777181 9.3999 1.13135C10.0249 1.50635 10.5145 1.99593 10.8687 2.6001C11.2228 3.20426 11.3999 3.87093 11.3999 4.6001C11.3999 5.32926 11.2228 5.99593 10.8687 6.6001C10.5145 7.20426 10.0249 7.69385 9.3999 8.06885C8.7749 8.42301 8.10824 8.6001 7.3999 8.6001C6.69157 8.6001 6.0249 8.42301 5.3999 8.06885C4.7749 7.69385 4.28532 7.20426 3.93115 6.6001C3.57699 5.99593 3.3999 5.32926 3.3999 4.6001ZM0.399902 15.6626C0.441569 14.1001 0.983236 12.7876 2.0249 11.7251C3.0874 10.6834 4.3999 10.1418 5.9624 10.1001H8.8374C10.3999 10.1418 11.7124 10.6834 12.7749 11.7251C13.8166 12.7876 14.3582 14.1001 14.3999 15.6626C14.3999 15.9334 14.3062 16.1522 14.1187 16.3188C13.952 16.5063 13.7332 16.6001 13.4624 16.6001H1.3374C1.06657 16.6001 0.847819 16.5063 0.681152 16.3188C0.493652 16.1522 0.399902 15.9334 0.399902 15.6626ZM19.4312 16.6001H15.1187C15.3062 16.3084 15.3999 15.9751 15.3999 15.6001V15.3501C15.3999 14.3918 15.202 13.5063 14.8062 12.6938C14.4312 11.8813 13.8999 11.1834 13.2124 10.6001C13.2957 10.6001 13.3687 10.6001 13.4312 10.6001H15.3687C16.7853 10.6418 17.9728 11.1313 18.9312 12.0688C19.8687 13.0272 20.3582 14.2147 20.3999 15.6313C20.3999 15.9022 20.3062 16.1313 20.1187 16.3188C19.9312 16.5063 19.702 16.6001 19.4312 16.6001ZM13.8999 8.6001C12.8999 8.57926 12.077 8.23551 11.4312 7.56885C12.0562 6.71468 12.3791 5.7251 12.3999 4.6001C12.3999 3.74593 12.2124 2.9751 11.8374 2.2876C12.4207 1.8501 13.1082 1.62093 13.8999 1.6001C14.8999 1.62093 15.7228 1.96468 16.3687 2.63135C17.0353 3.27718 17.3791 4.1001 17.3999 5.1001C17.3791 6.1001 17.0353 6.92301 16.3687 7.56885C15.7228 8.23551 14.8999 8.57926 13.8999 8.6001Z" fill="white"/>
</g>
<defs>
<clipPath id="clip0_1_1553">
<rect width="20" height="16.8" fill="white" transform="matrix(1 0 0 -1 0.399902 17)"/>
</clipPath>
</defs>
</svg>
