<svg width="18" height="15" viewBox="0 0 18 15" fill="none" xmlns="http://www.w3.org/2000/svg">
<path d="M9 0.600098C7.72917 0.620931 6.59375 0.870931 5.59375 1.3501C4.59375 1.82926 3.71875 2.42301 2.96875 3.13135C2.23958 3.81885 1.63542 4.52718 1.15625 5.25635C0.677083 5.98551 0.322917 6.64176 0.09375 7.2251C-0.0104167 7.4751 -0.0104167 7.7251 0.09375 7.9751C0.322917 8.55843 0.677083 9.21468 1.15625 9.94385C1.63542 10.673 2.23958 11.3813 2.96875 12.0688C3.71875 12.7772 4.59375 13.3709 5.59375 13.8501C6.59375 14.3293 7.72917 14.5793 9 14.6001C10.2708 14.5793 11.4062 14.3293 12.4062 13.8501C13.4062 13.3709 14.2812 12.7772 15.0312 12.0688C15.7604 11.3813 16.3646 10.673 16.8438 9.94385C17.3229 9.21468 17.6875 8.55843 17.9375 7.9751C18.0417 7.7251 18.0417 7.4751 17.9375 7.2251C17.6875 6.64176 17.3229 5.98551 16.8438 5.25635C16.3646 4.52718 15.7604 3.81885 15.0312 3.13135C14.2812 2.42301 13.4062 1.82926 12.4062 1.3501C11.4062 0.870931 10.2708 0.620931 9 0.600098ZM4.5 7.6001C4.5 6.7876 4.69792 6.0376 5.09375 5.3501C5.48958 4.6626 6.04167 4.11051 6.75 3.69385C7.45833 3.29801 8.20833 3.1001 9 3.1001C9.79167 3.1001 10.5417 3.29801 11.25 3.69385C11.9583 4.11051 12.5104 4.6626 12.9062 5.3501C13.3021 6.0376 13.5 6.7876 13.5 7.6001C13.5 8.4126 13.3021 9.1626 12.9062 9.8501C12.5104 10.5376 11.9583 11.0897 11.25 11.5063C10.5417 11.9022 9.79167 12.1001 9 12.1001C8.20833 12.1001 7.45833 11.9022 6.75 11.5063C6.04167 11.0897 5.48958 10.5376 5.09375 9.8501C4.69792 9.1626 4.5 8.4126 4.5 7.6001ZM9 5.6001C8.97917 6.1626 8.78125 6.63135 8.40625 7.00635C8.03125 7.38135 7.5625 7.57926 7 7.6001C6.77083 7.6001 6.5625 7.56885 6.375 7.50635C6.16667 7.46468 6.04167 7.5376 6 7.7251C6 7.93343 6.03125 8.15218 6.09375 8.38135C6.34375 9.19385 6.8125 9.79801 7.5 10.1938C8.1875 10.5897 8.94792 10.6938 9.78125 10.5063C10.5938 10.2563 11.1979 9.7876 11.5938 9.1001C11.9896 8.4126 12.0938 7.65218 11.9062 6.81885C11.7188 6.17301 11.375 5.65218 10.875 5.25635C10.3542 4.86051 9.77083 4.64176 9.125 4.6001C8.9375 4.64176 8.86458 4.76676 8.90625 4.9751C8.96875 5.1626 9 5.37093 9 5.6001Z" fill="white"/>
</svg>
