<svg width="14" height="15" viewBox="0 0 14 15" fill="none" xmlns="http://www.w3.org/2000/svg">
<path d="M0.0900879 7.5999C0.107796 8.83949 0.408838 9.97282 0.993213 10.9999C1.5953 12.027 2.42759 12.8593 3.49009 13.4968C4.5703 14.0989 5.70363 14.3999 6.89009 14.3999C8.07655 14.3999 9.20988 14.0989 10.2901 13.4968C11.3526 12.8593 12.1849 12.027 12.787 10.9999C13.3713 9.97282 13.6724 8.83949 13.6901 7.5999C13.6724 6.36032 13.3713 5.22698 12.787 4.1999C12.1849 3.17282 11.3526 2.34053 10.2901 1.70303C9.20988 1.10094 8.07655 0.799902 6.89009 0.799902C5.70363 0.799902 4.5703 1.10094 3.49009 1.70303C2.42759 2.34053 1.5953 3.17282 0.993213 4.1999C0.408838 5.22698 0.107796 6.36032 0.0900879 7.5999ZM7.55415 11.0265C7.25311 11.2744 6.95207 11.2744 6.65103 11.0265C6.40311 10.7254 6.40311 10.4244 6.65103 10.1233L8.53696 8.2374H3.70259C3.313 8.20199 3.1005 7.98949 3.06509 7.5999C3.1005 7.21032 3.313 6.99782 3.70259 6.9624H8.53696L6.65103 5.07646C6.40311 4.77542 6.40311 4.47438 6.65103 4.17334C6.95207 3.92542 7.25311 3.92542 7.55415 4.17334L10.5292 7.14834C10.7771 7.44938 10.7771 7.75042 10.5292 8.05146L7.55415 11.0265Z" fill="#525D6A"/>
</svg>
