<svg width="13" height="17" viewBox="0 0 13 17" fill="none" xmlns="http://www.w3.org/2000/svg">
<path d="M2.3999 0.600098C1.8374 0.620931 1.36865 0.818848 0.993652 1.19385C0.618652 1.56885 0.420736 2.0376 0.399902 2.6001V14.6001C0.420736 15.1626 0.618652 15.6313 0.993652 16.0063C1.36865 16.3813 1.8374 16.5793 2.3999 16.6001H10.3999C10.9624 16.5793 11.4312 16.3813 11.8062 16.0063C12.1812 15.6313 12.3791 15.1626 12.3999 14.6001V5.6001H8.3999C8.10824 5.6001 7.86865 5.50635 7.68115 5.31885C7.49365 5.13135 7.3999 4.89176 7.3999 4.6001V0.600098H2.3999ZM8.3999 0.600098V4.6001H12.3999L8.3999 0.600098ZM7.1499 8.3501V13.8501C7.10824 14.3084 6.85824 14.5584 6.3999 14.6001C5.94157 14.5584 5.69157 14.3084 5.6499 13.8501V8.3501C5.69157 7.89176 5.94157 7.64176 6.3999 7.6001C6.85824 7.64176 7.10824 7.89176 7.1499 8.3501ZM9.8999 10.3501V13.8501C9.85824 14.3084 9.60824 14.5584 9.1499 14.6001C8.69157 14.5584 8.44157 14.3084 8.3999 13.8501V10.3501C8.44157 9.89176 8.69157 9.64176 9.1499 9.6001C9.60824 9.64176 9.85824 9.89176 9.8999 10.3501ZM4.3999 12.3501V13.8501C4.35824 14.3084 4.10824 14.5584 3.6499 14.6001C3.19157 14.5584 2.94157 14.3084 2.8999 13.8501V12.3501C2.94157 11.8918 3.19157 11.6418 3.6499 11.6001C4.10824 11.6418 4.35824 11.8918 4.3999 12.3501Z" fill="white"/>
</svg>
