<svg width="19" height="17" viewBox="0 0 19 17" fill="none" xmlns="http://www.w3.org/2000/svg">
<path d="M8.30615 1.69385C8.49365 1.27718 8.38949 0.943848 7.99365 0.693848C7.57699 0.506348 7.24365 0.610515 6.99365 1.00635L4.0874 6.6001H1.3999C1.10824 6.6001 0.868652 6.69385 0.681152 6.88135C0.493652 7.06885 0.399902 7.30843 0.399902 7.6001C0.399902 7.89176 0.493652 8.13135 0.681152 8.31885C0.868652 8.50635 1.10824 8.6001 1.3999 8.6001L3.0249 15.1001C3.1499 15.5376 3.38949 15.8918 3.74365 16.1626C4.07699 16.4543 4.48324 16.6001 4.9624 16.6001H13.8374C14.3166 16.6001 14.7228 16.4543 15.0562 16.1626C15.4103 15.8918 15.6499 15.5376 15.7749 15.1001L17.3999 8.6001C17.6916 8.6001 17.9312 8.50635 18.1187 8.31885C18.3062 8.13135 18.3999 7.89176 18.3999 7.6001C18.3999 7.30843 18.3062 7.06885 18.1187 6.88135C17.9312 6.69385 17.6916 6.6001 17.3999 6.6001H14.7124L11.8062 1.00635C11.5562 0.610515 11.2228 0.506348 10.8062 0.693848C10.4103 0.943848 10.3062 1.27718 10.4937 1.69385L13.0249 6.6001H5.7749L8.30615 1.69385ZM6.3999 10.1001V13.1001C6.37907 13.4126 6.2124 13.5793 5.8999 13.6001C5.5874 13.5793 5.42074 13.4126 5.3999 13.1001V10.1001C5.42074 9.7876 5.5874 9.62093 5.8999 9.6001C6.2124 9.62093 6.37907 9.7876 6.3999 10.1001ZM9.3999 9.6001C9.7124 9.62093 9.87907 9.7876 9.8999 10.1001V13.1001C9.87907 13.4126 9.7124 13.5793 9.3999 13.6001C9.0874 13.5793 8.92074 13.4126 8.8999 13.1001V10.1001C8.92074 9.7876 9.0874 9.62093 9.3999 9.6001ZM13.3999 10.1001V13.1001C13.3791 13.4126 13.2124 13.5793 12.8999 13.6001C12.5874 13.5793 12.4207 13.4126 12.3999 13.1001V10.1001C12.4207 9.7876 12.5874 9.62093 12.8999 9.6001C13.2124 9.62093 13.3791 9.7876 13.3999 10.1001Z" fill="white"/>
</svg>
