<svg width="15" height="17" viewBox="0 0 15 17" fill="none" xmlns="http://www.w3.org/2000/svg">
<g clip-path="url(#clip0_1_1543)">
<path d="M14.3887 5.31885C14.5762 5.11051 14.6699 4.87093 14.6699 4.6001C14.6699 4.32926 14.5762 4.08968 14.3887 3.88135L11.3887 0.881348C11.1803 0.693848 10.9408 0.600098 10.6699 0.600098C10.3991 0.600098 10.1595 0.693848 9.95117 0.881348C9.76367 1.08968 9.66992 1.32926 9.66992 1.6001C9.66992 1.87093 9.76367 2.11051 9.95117 2.31885L11.2637 3.6001H1.66992C1.37826 3.6001 1.13867 3.69385 0.951172 3.88135C0.763672 4.06885 0.669922 4.30843 0.669922 4.6001C0.669922 4.89176 0.763672 5.13135 0.951172 5.31885C1.13867 5.50635 1.37826 5.6001 1.66992 5.6001H11.2637L9.95117 6.88135C9.76367 7.08968 9.66992 7.32926 9.66992 7.6001C9.66992 7.87093 9.76367 8.11051 9.95117 8.31885C10.1595 8.50635 10.3991 8.6001 10.6699 8.6001C10.9408 8.6001 11.1803 8.50635 11.3887 8.31885L14.3887 5.31885ZM3.95117 16.3188C4.15951 16.5063 4.39909 16.6001 4.66992 16.6001C4.94076 16.6001 5.18034 16.5063 5.38867 16.3188C5.57617 16.1105 5.66992 15.8709 5.66992 15.6001C5.66992 15.3293 5.57617 15.0897 5.38867 14.8813L4.07617 13.6001H13.6699C13.9616 13.6001 14.2012 13.5063 14.3887 13.3188C14.5762 13.1313 14.6699 12.8918 14.6699 12.6001C14.6699 12.3084 14.5762 12.0688 14.3887 11.8813C14.2012 11.6938 13.9616 11.6001 13.6699 11.6001H4.07617L5.38867 10.3188C5.57617 10.1105 5.66992 9.87093 5.66992 9.6001C5.66992 9.32926 5.57617 9.08968 5.38867 8.88135C5.18034 8.69385 4.94076 8.6001 4.66992 8.6001C4.39909 8.6001 4.15951 8.69385 3.95117 8.88135L0.951172 11.8813C0.763672 12.0897 0.669922 12.3293 0.669922 12.6001C0.669922 12.8709 0.763672 13.1105 0.951172 13.3188L3.95117 16.3188Z" fill="white"/>
</g>
<defs>
<clipPath id="clip0_1_1543">
<rect width="14" height="16.8" fill="white" transform="matrix(1 0 0 -1 0.669922 17)"/>
</clipPath>
</defs>
</svg>
